<?xml version="1.0" encoding="UTF-8"?>
<svg id="Layer_1" xmlns="http://www.w3.org/2000/svg" version="1.1" viewBox="0 0 129.03 125.94">
  <!-- Generator: Adobe Illustrator 30.2.1, SVG Export Plug-In . SVG Version: 2.1.1 Build 1)  -->
  <path d="M129.03,0v8.14h-2.68c-1.28,0-2.56.15-3.77.6-5.88,2.19-10.63,6.75-13.04,12.63l-43.16,104.57h-8.97L15.12,21.52C12.44,14.97,6.9,10.03.04,8.14h-.04L.64,0h44.18l.41,8.14c-5.39,1.24-8.9,6.03-8.9,11.2,0,1.39.26,2.79.79,4.18l26.69,67.7c1.02,2.56,4.67,2.53,5.62-.08l24.95-67.44c2.41-6.6-1.62-13.83-8.52-15.23l-1.77-.34.64-8.14h44.29Z"/>
</svg>